<?xml version="1.0" standalone="no"?>
<!DOCTYPE svg PUBLIC "-//W3C//DTD SVG 20010904//EN"
 "http://www.w3.org/TR/2001/REC-SVG-20010904/DTD/svg10.dtd">
<svg version="1.0" xmlns="http://www.w3.org/2000/svg"
 width="300.000000pt" height="300.000000pt" viewBox="0 0 300.000000 300.000000"
 preserveAspectRatio="xMidYMid meet">
<metadata>
Created by potrace 1.10, written by Peter Selinger 2001-2011
</metadata>
<g transform="translate(0.000000,300.000000) scale(0.100000,-0.100000)"
fill="#393d33" stroke="none">
<path d="M1794 2726 c-70 -31 -99 -114 -65 -190 17 -38 29 -50 67 -67 78 -35
153 -8 189 67 56 119 -69 243 -191 190z m136 -24 c113 -83 41 -255 -99 -234
-41 6 -96 59 -104 100 -23 115 109 203 203 134z"/>
<path d="M986 2626 c-26 -28 -36 -33 -67 -29 -24 3 -39 0 -48 -11 -8 -10 -9
-16 -3 -16 6 0 14 5 18 11 4 6 20 8 40 4 30 -5 38 -2 68 30 18 19 43 35 55 35
34 0 89 -26 103 -49 9 -14 23 -21 45 -21 17 0 35 -4 38 -10 9 -15 -350 -13
-392 2 -35 13 -62 5 -71 -20 -3 -9 58 -12 242 -12 145 0 246 4 246 9 0 24 -37
46 -69 41 -7 -1 -20 8 -28 20 -19 27 -72 50 -114 50 -23 0 -40 -9 -63 -34z"/>
<path d="M1615 2590 c3 -5 19 -10 36 -10 16 0 29 5 29 10 0 6 -16 10 -36 10
-21 0 -33 -4 -29 -10z"/>
<path d="M2035 2590 c3 -5 17 -10 30 -10 13 0 27 5 30 10 4 6 -8 10 -30 10
-22 0 -34 -4 -30 -10z"/>
<path d="M2277 2336 c-47 -17 -79 -46 -115 -103 -29 -46 -43 -51 -82 -28 -46
26 -96 19 -139 -20 -42 -38 -65 -43 -95 -20 -37 28 -92 11 -116 -36 -11 -19
-3 -19 532 -19 l543 0 -48 47 c-48 45 -49 46 -103 40 -52 -5 -55 -4 -69 23
-47 90 -211 152 -308 116z m199 -34 c44 -23 98 -78 109 -112 5 -15 12 -19 23
-14 45 19 83 16 122 -10 22 -14 40 -31 40 -36 0 -6 -184 -10 -517 -10 l-516 0
23 25 c28 30 39 31 90 5 l40 -20 51 40 c58 46 90 50 143 19 l36 -21 27 30 c16
17 39 45 52 62 44 58 76 72 161 67 50 -2 88 -11 116 -25z"/>
<path d="M800 2289 c0 -5 -8 -9 -17 -7 -10 1 -19 -1 -21 -6 -1 -5 10 -11 24
-12 15 -2 36 -12 48 -23 12 -12 28 -21 34 -21 7 0 12 -4 12 -10 0 -5 -8 -10
-18 -10 -10 0 -22 -4 -27 -9 -13 -13 -52 31 -49 53 1 10 -3 15 -9 13 -20 -6
-18 -25 4 -46 19 -18 20 -21 6 -21 -10 0 -17 -8 -17 -19 0 -25 17 -36 33 -22
7 5 23 8 35 4 14 -3 30 1 42 12 21 19 28 41 8 29 -7 -4 -8 -3 -4 4 4 6 14 8
24 5 15 -6 15 -5 3 10 -7 9 -22 17 -32 17 -12 0 -19 7 -19 19 0 11 -10 27 -22
35 -26 19 -38 20 -38 5z"/>
<path d="M1450 2120 l0 -40 -197 -2 -196 -3 -86 -135 c-98 -152 -120 -169
-156 -115 -26 38 -89 73 -147 81 -60 8 -106 -14 -146 -72 -32 -44 -32 -45 -61
-29 -44 22 -66 19 -105 -16 -33 -29 -37 -30 -58 -15 -12 9 -30 16 -38 16 -16
0 -60 -39 -60 -53 0 -4 144 -7 320 -7 l319 0 -49 -77 c-38 -59 -46 -79 -35
-81 23 -5 20 -146 -4 -191 l-18 -34 1 83 c1 59 -3 84 -12 87 -19 7 -54 -83
-56 -144 0 -29 -2 -53 -4 -53 -2 0 -18 11 -35 24 -37 28 -124 59 -144 52 -37
-15 -2 -52 112 -119 69 -40 122 -91 106 -101 -6 -4 -46 3 -88 15 -43 12 -109
26 -148 30 -69 7 -69 8 20 4 61 -2 108 -9 144 -24 30 -11 57 -19 59 -17 12 12
-123 49 -194 54 -72 4 -88 1 -137 -21 -55 -25 -97 -58 -97 -77 0 -6 11 -15 24
-21 21 -10 23 -14 13 -30 -9 -15 -8 -22 6 -36 13 -14 31 -17 81 -15 153 7 358
-69 718 -265 170 -93 280 -133 365 -133 49 0 92 11 205 50 299 105 370 119
517 104 l61 -7 0 -73 c0 -110 -7 -104 136 -104 l124 0 0 -25 0 -25 230 0 230
0 0 380 0 380 -225 0 c-191 0 -227 -2 -231 -15 -5 -12 -28 -15 -116 -15 -110
0 -148 -9 -148 -35 0 -11 -6 -12 -32 -3 -18 6 -45 19 -60 30 -15 10 -43 25
-63 34 -45 19 -39 29 49 80 64 37 116 81 116 97 0 20 -100 0 -149 -30 l-48
-31 -6 59 c-6 66 -37 135 -59 131 -9 -1 -66 81 -158 228 l-144 230 -73 0 -73
0 0 40 0 40 -50 0 -50 0 0 -40z m60 -45 c0 -73 -1 -75 -25 -75 -24 0 -25 2
-25 75 0 73 1 75 25 75 24 0 25 -2 25 -75z m30 16 c0 -33 -4 -63 -10 -66 -6
-4 -10 18 -10 59 0 37 4 66 10 66 6 0 10 -26 10 -59z m-90 -61 c0 -39 1 -40
34 -40 37 0 66 28 66 62 0 15 9 18 66 18 l66 0 -15 -22 c-9 -13 -80 -123 -157
-245 l-141 -223 -306 0 -305 0 21 33 c11 17 80 128 153 244 l133 213 193 0
192 0 0 -40z m358 -219 l132 -218 0 -122 c0 -101 -2 -121 -15 -121 -12 0 -15
15 -15 75 l0 75 -95 0 -95 0 0 -95 c0 -77 -3 -95 -15 -95 -25 0 -118 -46 -188
-94 -65 -44 -96 -53 -131 -40 -14 5 -16 32 -16 194 l0 188 148 236 c81 129
149 236 152 236 3 0 65 -98 138 -219z m-1048 51 c14 -10 34 -33 45 -50 15 -25
25 -31 43 -27 25 6 27 -2 8 -27 -12 -17 -40 -18 -325 -18 -193 0 -311 4 -311
10 0 22 39 31 70 15 30 -15 32 -15 75 16 l45 32 41 -19 42 -18 21 28 c45 62
63 78 96 85 45 9 118 -4 150 -27z m1273 -308 c19 -54 18 -154 -2 -193 -20 -37
-34 -13 -27 48 4 31 3 51 -1 44 -5 -6 -8 15 -9 50 0 34 4 65 10 69 6 4 4 13
-5 24 -12 15 -12 17 1 12 8 -2 23 -27 33 -54z m-682 12 c2 -2 3 -90 1 -195
l-3 -191 -67 0 c-40 0 -79 -6 -96 -15 -15 -8 -30 -15 -32 -15 -2 0 -4 72 -4
160 l0 160 -80 0 -80 0 0 -190 c0 -104 -3 -190 -7 -190 -5 0 -51 13 -103 28
l-95 28 -3 212 -2 212 283 0 c156 0 286 -2 288 -4z m629 -8 c0 -7 3 -31 6 -53
l6 -40 -21 33 c-25 38 -27 72 -6 72 8 0 15 -6 15 -12z m-1254 -165 c-4 -60 -9
-124 -12 -143 -3 -26 -2 -31 5 -20 9 13 11 13 11 -2 0 -9 -4 -20 -10 -23 -5
-3 -10 -1 -10 5 0 6 -4 9 -9 6 -4 -3 -19 6 -32 20 -13 14 -53 43 -89 64 -36
21 -74 47 -84 59 -19 21 -19 21 10 21 39 0 129 -45 154 -77 33 -43 23 -47 -22
-9 -23 20 -44 33 -47 30 -3 -3 3 -10 14 -16 11 -6 37 -28 58 -48 20 -21 37
-37 37 -36 0 1 -5 17 -10 36 -16 53 -13 151 5 198 29 71 37 51 31 -65z m1249
71 c8 -20 15 -55 14 -78 l-1 -41 -13 30 -13 30 -5 -30 c-2 -16 -5 5 -6 48 0
42 1 77 4 77 3 0 12 -16 20 -36z m-195 -54 c0 -79 0 -80 -25 -80 -25 0 -25 1
-25 80 0 79 0 80 25 80 25 0 25 -1 25 -80z m120 10 c0 -68 -1 -70 -25 -70 -24
0 -25 2 -25 70 0 68 1 70 25 70 24 0 25 -2 25 -70z m340 60 c0 -6 -26 -26 -57
-46 -32 -20 -78 -50 -102 -67 -30 -21 -41 -25 -34 -12 6 10 8 26 6 35 -3 11 6
25 25 39 66 47 162 77 162 51z m-1130 -61 c3 -5 2 -37 -2 -71 -10 -74 -10 -79
-2 -139 5 -42 3 -49 -22 -73 -52 -47 -54 -41 -54 133 0 118 3 161 13 164 15 6
60 -3 67 -14z m-348 -250 c-7 -17 -8 0 -6 56 2 69 2 72 -4 23 -4 -31 -10 -59
-13 -62 -12 -13 -1 151 12 179 13 27 14 23 17 -71 1 -55 -1 -111 -6 -125z
m1359 119 c52 -25 102 -49 112 -52 15 -5 17 -21 17 -151 l0 -145 -67 -65 c-65
-62 -70 -64 -119 -65 -59 0 -159 -27 -393 -107 -150 -51 -169 -55 -225 -50
-90 8 -169 41 -382 155 -327 175 -476 230 -653 241 -72 4 -106 10 -109 19 -7
21 64 79 119 97 41 14 70 16 143 11 50 -4 106 -8 124 -8 21 -1 28 -4 20 -10
-10 -6 -9 -8 3 -8 9 0 86 -20 170 -44 107 -31 153 -49 150 -58 -2 -7 -6 -31
-8 -54 -7 -59 14 -78 81 -68 28 3 69 13 91 21 28 10 115 16 297 20 142 3 256
8 254 11 -3 2 -106 3 -230 3 -208 -2 -225 -1 -229 16 -4 15 -5 14 -6 -4 -1
-30 -66 -37 -98 -9 -28 24 -85 15 -119 -19 l-24 -24 -6 24 c-16 62 43 136 145
183 51 23 60 24 164 18 l110 -7 76 50 c143 94 267 133 407 128 85 -3 97 -6
185 -49z m839 -348 l0 -370 -220 0 -220 0 0 370 0 370 220 0 220 0 0 -370z
m-460 310 c0 -19 -7 -20 -105 -20 -67 0 -105 -4 -105 -11 0 -7 36 -9 108 -7
l107 3 -3 -32 -4 -33 -111 0 c-79 0 -108 -3 -100 -11 6 -6 49 -9 111 -7 l101
3 3 -70 c2 -38 2 -154 0 -257 l-3 -188 -114 0 c-104 0 -114 2 -120 20 -4 13 0
511 5 628 0 1 52 2 115 2 108 0 115 -1 115 -20z m-1965 -50 c25 -6 20 -8 -26
-9 -63 -1 -124 -20 -166 -50 -26 -19 -73 -20 -73 -1 0 12 34 38 70 54 37 16
143 19 195 6z m636 -220 c31 -17 22 -27 -28 -34 -27 -4 -56 -10 -67 -13 -31
-9 -13 20 25 39 40 21 44 21 70 8z"/>
<path d="M1063 1918 c-40 -28 -71 -53 -69 -56 3 -2 38 19 79 47 l73 51 117 0
c77 0 118 -4 123 -12 4 -7 3 -8 -4 -4 -6 4 -46 -16 -87 -44 l-76 -51 -125 2
c-68 1 -127 -1 -131 -4 -3 -4 -1 -7 5 -7 8 0 12 -26 12 -80 l0 -81 132 3 133
3 -4 80 -3 80 68 47 c37 26 69 46 71 44 2 -2 -26 -51 -62 -111 -37 -59 -64
-109 -62 -112 4 -4 114 172 146 235 l12 22 -138 0 -138 -1 -72 -51z m167 -153
l0 -75 -120 0 -120 0 0 75 0 75 120 0 120 0 0 -75z"/>
<path d="M1042 1763 l3 -58 63 -1 62 -1 0 58 0 59 -65 0 -66 0 3 -57z m38 -4
c0 -66 -24 -62 -28 4 -2 37 0 47 12 47 12 0 16 -12 16 -51z m78 4 c-4 -66 -28
-70 -28 -4 0 39 4 51 16 51 12 0 14 -10 12 -47z"/>
<path d="M1604 1776 c-3 -7 -4 -33 -2 -57 l3 -44 63 -3 62 -3 0 61 0 60 -60 0
c-42 0 -62 -4 -66 -14z m41 -46 c0 -26 -5 -45 -12 -47 -9 -3 -13 10 -13 47 0
37 4 50 13 48 7 -3 12 -22 12 -48z m75 0 c0 -38 -4 -50 -15 -50 -11 0 -15 12
-15 50 0 38 4 50 15 50 11 0 15 -12 15 -50z"/>
<path d="M1420 1410 l0 -90 95 0 95 0 0 90 0 90 -95 0 -95 0 0 -90z m68 -2 c3
-78 3 -78 -23 -78 -25 0 -25 1 -25 81 0 78 1 80 23 77 20 -3 22 -9 25 -80z
m112 2 c0 -79 0 -80 -25 -80 -25 0 -25 1 -25 80 0 79 0 80 25 80 25 0 25 -1
25 -80z"/>
<path d="M2022 1470 c-1 -25 -4 -63 -7 -85 l-5 -40 11 40 c5 22 8 60 6 85 l-3
45 -2 -45z"/>
<path d="M810 1410 l0 -90 75 0 75 0 0 90 0 90 -75 0 -75 0 0 -90z m50 0 c0
-73 -2 -80 -20 -80 -18 0 -20 7 -20 80 0 73 2 80 20 80 18 0 20 -7 20 -80z
m90 0 c0 -73 -2 -80 -20 -80 -18 0 -20 7 -20 80 0 73 2 80 20 80 18 0 20 -7
20 -80z"/>
<path d="M1170 1410 l0 -90 75 0 75 0 0 90 0 90 -75 0 -75 0 0 -90z m50 0 c0
-73 -2 -80 -20 -80 -18 0 -20 7 -20 80 0 73 2 80 20 80 18 0 20 -7 20 -80z
m90 0 c0 -73 -2 -80 -20 -80 -18 0 -20 7 -20 80 0 73 2 80 20 80 18 0 20 -7
20 -80z"/>
<path d="M697 1393 c-9 -8 -7 -68 3 -108 5 -20 7 -7 6 42 -1 40 -1 73 -2 73 0
0 -4 -3 -7 -7z"/>
<path d="M2097 1414 c-21 -14 -36 -28 -33 -31 4 -5 76 45 76 53 0 7 -5 5 -43
-22z"/>
<path d="M2318 993 c23 -2 59 -2 80 0 20 2 1 4 -43 4 -44 0 -61 -2 -37 -4z"/>
<path d="M2162 1927 c-12 -13 -22 -28 -22 -33 0 -5 -14 -15 -31 -21 l-30 -12
22 -30 c17 -23 31 -31 53 -31 17 0 38 -4 46 -10 31 -19 48 31 17 52 -6 4 -3
13 7 23 9 10 15 22 14 27 -4 11 -23 12 -23 1 -1 -25 -33 -75 -52 -79 -26 -7
-46 3 -37 18 4 6 2 8 -3 5 -6 -4 -14 0 -17 9 -3 8 -2 12 4 9 6 -3 10 -1 10 5
0 7 7 10 15 6 8 -3 19 3 25 14 9 17 32 29 66 34 7 1 17 6 21 10 4 5 -4 6 -19
2 -21 -5 -28 -3 -28 9 0 21 -13 19 -38 -8z"/>
</g>
</svg>
