<svg xmlns="http://www.w3.org/2000/svg" version="1.0" preserveAspectRatio="xMidYMid meet" viewBox="111 95 475 186">
<metadata>
Created by potrace 1.16, written by Peter Selinger 2001-2019
</metadata>
<g transform="translate(0.000000,368.000000) scale(0.100000,-0.100000)" fill="#32cd5d" stroke="none">
<path d="M1110 2283 l0 -448 1545 3 1545 2 0 445 0 445 -1545 0 -1545 0 0 -447z m406 293 c11 -8 28 -33 38 -55 l19 -40 64 54 64 55 74 0 c63 0 76 -3 85 -19 6 -12 10 -112 10 -256 l0 -237 -47 -45 c-58 -54 -79 -63 -144 -63 -85 0 -89 5 -89 122 l0 101 -23 -21 c-13 -12 -29 -22 -35 -22 -7 0 -12 -16 -12 -39 0 -34 -6 -44 -56 -86 -49 -42 -61 -48 -113 -52 -106 -9 -101 -22 -101 271 l0 253 58 46 c55 45 59 47 122 47 41 0 73 -5 86 -14z m852 2 c7 -7 12 -38 12 -70 0 -56 -2 -61 -42 -98 -24 -22 -46 -40 -50 -40 -5 0 -8 -36 -8 -80 l0 -80 38 0 c51 0 62 -14 62 -81 0 -56 0 -57 -57 -105 l-57 -49 -159 -2 c-93 -2 -167 2 -178 8 -16 8 -19 21 -19 73 l0 63 50 42 51 43 -3 71 -3 72 -45 5 -45 5 -3 65 -3 65 58 52 58 53 165 0 c116 0 170 -4 178 -12z m322 -7 c5 -11 10 -29 10 -40 0 -28 4 -27 59 19 46 39 50 40 119 40 91 0 95 -8 53 -103 -33 -76 -37 -97 -21 -97 6 0 22 -12 35 -26 24 -26 25 -32 25 -165 l0 -137 -61 -46 c-53 -40 -67 -46 -109 -46 -27 0 -60 4 -74 10 -22 8 -26 16 -26 51 l0 41 -57 -48 c-52 -45 -61 -49 -118 -52 -110 -7 -105 -21 -105 266 l0 248 33 30 c72 68 85 74 158 74 57 0 70 -3 79 -19z m820 0 c5 -11 10 -42 10 -69 0 -44 -4 -53 -32 -78 -32 -28 -33 -31 -30 -93 4 -63 3 -66 -30 -93 l-33 -27 51 -1 c27 0 55 -5 62 -12 7 -7 12 -37 12 -67 0 -52 -2 -56 -47 -98 -27 -25 -57 -48 -69 -53 -11 -4 -95 -9 -186 -9 -140 -2 -168 1 -182 14 -14 14 -16 50 -16 258 l-1 242 58 52 58 53 182 0 c170 0 183 -1 193 -19z m508 7 c7 -7 12 -39 12 -74 0 -58 -2 -64 -30 -84 -32 -22 -39 -40 -17 -40 7 0 26 -13 41 -29 24 -25 29 -40 34 -99 7 -101 -7 -132 -91 -202 -42 -36 -84 -63 -106 -67 -20 -5 -96 -8 -169 -8 -153 0 -153 0 -150 83 1 48 5 56 40 86 l38 33 -30 21 c-45 34 -63 129 -40 213 12 44 118 142 177 164 49 18 274 20 291 3z"/>
<path d="M1355 2558 c-3 -7 -4 -119 -2 -248 l2 -235 73 -3 72 -3 0 130 c0 71 3 132 8 135 4 2 16 -14 27 -36 36 -75 87 -76 132 -1 l28 48 3 -137 3 -138 74 0 75 0 -2 248 -3 247 -72 3 -73 3 -29 -46 c-16 -25 -34 -59 -41 -76 -7 -17 -19 -29 -27 -27 -8 2 -31 32 -50 68 -20 36 -41 68 -47 72 -19 13 -146 9 -151 -4z m120 -55 c8 -10 36 -49 62 -88 27 -38 55 -70 63 -70 8 0 38 36 68 80 59 86 72 98 96 89 14 -5 16 -32 16 -195 0 -119 -4 -189 -10 -189 -6 0 -10 68 -10 185 0 142 -3 185 -12 185 -7 -1 -37 -39 -66 -85 -73 -115 -86 -115 -162 -3 -30 45 -61 84 -67 86 -10 3 -13 -38 -13 -182 0 -112 -4 -187 -10 -191 -7 -4 -10 61 -10 189 0 192 2 202 33 205 4 1 14 -7 22 -16z"/>
<path d="M2022 2508 l3 -63 43 -3 43 -3 -3 -122 -3 -122 -30 -1 c-16 -1 -36 -2 -42 -3 -9 -1 -13 -20 -13 -61 l0 -60 170 0 170 0 0 60 c0 64 0 64 -57 61 l-33 -2 0 125 0 125 43 3 42 3 3 63 3 62 -171 0 -171 0 3 -62z m283 2 c4 -6 -15 -10 -49 -10 l-56 0 0 -180 0 -180 50 0 c28 0 50 -4 50 -10 0 -6 -43 -10 -110 -10 -67 0 -110 4 -110 10 0 6 23 10 50 10 l50 0 0 180 0 180 -50 0 c-27 0 -50 5 -50 10 0 6 43 10 109 10 63 0 112 -4 116 -10z"/>
<path d="M2530 2320 l0 -250 75 0 74 0 3 93 3 92 48 3 c70 5 77 -5 77 -105 l0 -84 73 3 72 3 3 117 c3 136 -8 172 -58 183 -16 4 -30 8 -30 10 0 1 16 37 35 79 19 43 35 84 35 92 0 11 -15 14 -62 14 -35 0 -68 -4 -74 -8 -6 -4 -29 -46 -49 -94 -28 -65 -43 -88 -57 -88 -16 0 -18 10 -18 95 l0 95 -75 0 -75 0 0 -250z m81 100 l-2 -90 78 0 78 0 40 97 c22 53 41 90 43 81 2 -8 -13 -51 -32 -94 l-35 -79 37 -8 c63 -13 72 -29 72 -124 0 -54 -4 -82 -10 -78 -5 3 -10 39 -10 78 0 40 -5 79 -10 87 -7 12 -33 15 -127 15 l-118 0 -1 -88 c0 -48 -4 -90 -7 -94 -4 -3 -7 85 -7 197 0 112 3 200 6 197 4 -3 6 -47 5 -97z"/>
<path d="M3137 2563 c-4 -3 -7 -116 -7 -250 l0 -243 185 0 185 0 0 60 0 60 -110 0 -110 0 0 35 0 35 64 0 c92 0 96 3 96 66 l0 54 -81 0 -80 0 3 33 3 32 108 3 107 3 0 59 0 60 -178 0 c-98 0 -182 -3 -185 -7z m303 -53 c0 -5 -49 -11 -112 -12 l-113 -3 0 -70 c-1 -38 1 -76 3 -82 3 -9 30 -13 88 -13 49 0 84 -4 84 -10 0 -6 -36 -10 -88 -10 l-89 0 1 -82 1 -83 113 -3 c152 -4 146 -22 -8 -22 l-120 0 0 200 0 200 120 0 c71 0 120 -4 120 -10z"/>
<path d="M3718 2554 c-48 -20 -68 -63 -68 -146 0 -110 29 -136 167 -154 60 -7 83 -25 63 -49 -10 -12 -37 -15 -122 -15 l-109 0 3 -57 3 -58 145 -3 c208 -3 240 16 240 150 0 118 -19 139 -145 160 -70 11 -80 16 -83 35 -3 22 0 22 95 25 l98 3 3 63 3 62 -128 -1 c-91 0 -139 -4 -165 -15z m237 -44 c4 -6 -27 -10 -87 -10 -117 -1 -128 -8 -128 -83 0 -66 3 -69 105 -87 113 -20 125 -30 125 -103 0 -61 -11 -82 -51 -96 -40 -14 -209 -15 -209 -1 0 6 41 10 103 10 127 0 140 8 135 91 -3 51 -5 54 -38 65 -19 7 -63 18 -98 25 -79 15 -92 27 -92 89 0 64 7 80 44 96 36 15 182 19 191 4z"/>
<path d="M1560 1270 l0 -400 2150 0 2150 0 0 400 0 400 -2150 0 -2150 0 0 -400z m308 63 l2 -183 45 0 44 0 3 68 3 67 54 3 c104 6 101 10 101 -136 0 -86 -4 -132 -12 -140 -13 -13 -361 -18 -392 -6 -14 5 -16 37 -16 253 0 136 3 251 7 255 4 4 41 5 83 4 l75 -3 3 -182z m671 169 c5 -10 26 -61 47 -113 35 -89 37 -101 41 -235 l5 -141 -24 -6 c-36 -10 -107 -8 -129 3 -15 9 -19 22 -19 65 l0 55 -55 0 -55 0 0 -53 c0 -29 -5 -58 -12 -65 -16 -16 -120 -15 -142 1 -17 12 -18 26 -14 143 5 121 8 135 45 229 22 55 43 108 46 118 6 15 21 17 131 17 110 0 126 -2 135 -18z m332 -4 c0 -13 0 -70 -1 -126 -1 -105 6 -120 30 -62 24 57 93 55 127 -5 l22 -40 3 125 3 125 80 0 80 0 3 -170 c2 -163 1 -173 -25 -248 -15 -43 -34 -82 -43 -87 -17 -9 -125 -8 -135 1 -3 4 -14 35 -24 70 -9 34 -22 64 -28 66 -6 2 -20 -27 -32 -65 -12 -39 -28 -72 -37 -76 -8 -3 -37 -6 -63 -6 -57 0 -69 11 -102 95 -20 53 -23 80 -26 225 -1 91 0 173 3 183 4 14 18 17 85 17 75 0 79 -1 80 -22z m635 -58 l69 -80 5 77 5 78 80 0 80 0 3 -242 c3 -276 5 -270 -78 -272 -77 -1 -90 9 -90 72 -1 49 -4 56 -55 115 l-55 63 0 -115 c0 -133 -4 -139 -88 -135 -87 4 -82 -12 -82 263 0 133 3 246 7 249 3 4 34 7 68 7 l61 0 70 -80z m702 13 l-3 -68 -80 -3 c-135 -4 -126 5 -123 -120 l3 -107 100 -5 100 -5 3 -67 c3 -66 2 -68 -24 -74 -15 -4 -78 -4 -140 -1 -127 7 -164 20 -195 70 -18 29 -19 47 -17 203 3 156 5 174 23 194 37 41 72 49 218 50 l138 0 -3 -67z m461 -48 l45 -110 0 -144 1 -145 -62 -4 c-88 -5 -103 6 -103 73 l0 55 -55 0 -55 0 -1 -45 c-2 -63 -2 -65 -19 -75 -22 -14 -113 -12 -134 3 -16 12 -18 27 -14 143 5 132 12 160 88 342 10 22 13 23 137 20 l127 -3 45 -110z m503 86 c31 -28 33 -33 32 -98 0 -37 -4 -77 -8 -88 -6 -16 -2 -24 17 -34 36 -19 44 -45 46 -152 2 -69 -2 -99 -11 -106 -16 -12 -128 -16 -145 -5 -7 4 -13 38 -15 82 l-3 75 -57 3 -58 3 0 -80 0 -80 -32 -6 c-18 -3 -55 -4 -83 -2 l-50 3 -3 245 c-1 134 0 249 3 256 3 10 45 13 170 13 l165 0 32 -29z m546 -29 c4 -78 -2 -82 -124 -82 -97 0 -104 -1 -104 -20 0 -18 7 -20 65 -21 36 -1 70 -3 75 -4 6 -1 15 -3 20 -4 7 -1 10 -25 8 -63 l-3 -63 -82 -3 c-81 -3 -83 -3 -83 -27 0 -25 0 -25 103 -25 67 0 107 -4 115 -12 7 -7 12 -35 12 -63 0 -28 -5 -56 -12 -63 -13 -13 -331 -18 -362 -6 -14 5 -16 38 -16 260 l0 254 193 -2 192 -3 3 -53z"/>
</g>
</svg>