<?xml version="1.0" standalone="no"?>
<!DOCTYPE svg PUBLIC "-//W3C//DTD SVG 20010904//EN"
 "http://www.w3.org/TR/2001/REC-SVG-20010904/DTD/svg10.dtd">
<svg version="1.0" xmlns="http://www.w3.org/2000/svg"
 width="300.000000pt" height="329.000000pt" viewBox="0 0 300.000000 329.000000"
 preserveAspectRatio="xMidYMid meet">
<metadata>
Created by potrace 1.10, written by Peter Selinger 2001-2011
</metadata>
<g transform="translate(0.000000,329.000000) scale(0.100000,-0.100000)"
fill="#393d33" stroke="none">
<path d="M1531 2718 c-24 -11 -57 -40 -73 -62 -26 -36 -34 -41 -71 -42 -41 -1
-175 -59 -164 -71 3 -3 37 9 76 27 50 23 77 31 97 26 26 -7 26 -8 19 -64 -7
-56 -7 -57 12 -39 11 9 25 17 32 17 19 0 34 -51 22 -77 -7 -16 -7 -24 1 -29 7
-4 14 -2 16 4 2 7 21 12 41 12 25 0 44 7 56 20 l18 20 27 -25 c45 -43 139 -25
160 31 40 104 -37 239 -149 263 -68 15 -69 14 -120 -11z m165 -49 c61 -37 93
-147 58 -197 -18 -26 -70 -30 -100 -7 -24 18 -48 19 -83 1 -28 -15 -29 -14
-75 39 -25 29 -46 60 -46 68 0 21 70 98 104 113 38 17 99 10 142 -17z"/>
<path d="M1144 2504 c-107 -72 -155 -155 -204 -356 -33 -135 -37 -184 -17
-231 8 -18 37 -104 65 -192 55 -167 66 -194 78 -182 4 4 -15 78 -44 165 -89
274 -88 268 -65 386 5 28 6 28 24 10 12 -13 19 -36 20 -69 2 -27 8 -64 15 -80
7 -17 17 -72 23 -123 14 -124 47 -190 195 -386 81 -107 85 -114 87 -157 4 -80
-11 -99 -79 -99 -53 0 -64 6 -80 37 -7 13 -18 19 -29 17 -12 -3 -50 21 -108
70 -118 98 -193 151 -202 142 -10 -9 22 -39 167 -155 147 -118 196 -146 263
-146 42 0 52 4 78 33 33 36 37 82 15 142 -7 19 -62 100 -122 180 -139 186
-151 211 -166 344 -7 58 -16 106 -20 106 -4 0 -8 30 -8 68 0 56 -3 69 -20 79
-24 16 -43 83 -34 120 27 107 139 263 190 263 31 0 79 -43 97 -88 8 -20 18
-68 22 -105 6 -56 4 -75 -13 -115 -11 -26 -22 -84 -26 -132 -4 -46 -11 -87
-16 -90 -5 -3 -14 -37 -20 -75 l-12 -70 67 -135 c36 -74 64 -124 61 -110 -3
14 -8 66 -12 116 l-7 91 27 7 c18 4 32 19 43 44 10 20 18 38 19 40 1 3 282
-26 316 -34 l28 -6 -19 -37 c-11 -20 -35 -90 -55 -156 -20 -65 -40 -122 -44
-125 -24 -18 -52 -74 -52 -105 0 -33 4 -38 45 -56 24 -11 60 -19 80 -17 25 1
42 -5 62 -23 53 -48 62 -52 77 -40 17 14 90 21 108 10 9 -6 13 -33 13 -93 0
-46 -3 -82 -7 -80 -4 3 -5 -2 -2 -11 5 -11 0 -18 -17 -22 -22 -6 -22 -7 -3
-14 16 -7 17 -8 2 -8 -15 -1 -18 -10 -17 -48 1 -27 3 -40 6 -31 2 10 10 15 19
11 11 -4 14 5 14 40 0 26 6 49 14 56 19 16 25 56 17 124 -7 56 -6 58 13 53 12
-3 25 -6 30 -6 5 0 6 -30 2 -69 -7 -76 -14 -103 -26 -96 -8 5 -23 -85 -15 -93
2 -3 9 6 14 19 9 23 10 22 31 -26 16 -35 23 -69 23 -117 0 -42 4 -63 9 -56 6
9 8 5 6 -12 -2 -14 -9 -24 -16 -22 -15 3 -16 -17 -2 -38 9 -13 12 -12 25 4 8
11 15 27 14 35 0 21 -25 150 -35 180 -6 20 -4 23 8 18 11 -4 18 2 22 19 8 29
46 71 46 50 0 -7 2 -29 5 -47 4 -29 3 -30 -4 -9 -9 25 -9 25 -10 -5 -1 -16 -4
-41 -8 -55 l-6 -25 22 20 c31 27 46 59 60 124 13 60 9 71 -16 49 -10 -8 -25
-19 -33 -24 -13 -7 -13 -4 1 16 9 14 22 35 29 47 11 17 18 19 39 12 33 -13 79
7 87 37 3 13 12 28 20 35 8 6 14 18 14 27 0 17 -46 61 -85 82 -24 13 -27 11
-70 -33 -25 -26 -45 -51 -45 -55 0 -4 7 -20 15 -36 14 -26 13 -30 -4 -53 -11
-13 -27 -46 -36 -72 -8 -27 -26 -58 -39 -70 -24 -22 -24 -22 -31 -3 -3 12 1
47 10 80 8 33 15 83 15 111 0 46 3 53 25 61 41 15 48 45 33 130 -13 68 -16 74
-43 82 -27 7 -90 2 -107 -9 -5 -2 -8 -27 -8 -55 0 -43 2 -49 14 -38 8 6 16 21
18 33 2 17 11 22 44 24 41 2 42 2 49 -35 15 -73 14 -80 -16 -108 -23 -22 -32
-26 -38 -15 -5 7 -19 11 -32 10 -35 -5 -49 8 -49 46 0 37 -32 71 -104 107 -52
26 -49 23 -37 46 7 13 6 35 -5 78 -13 48 -14 65 -3 96 11 36 9 45 -44 180 -30
79 -59 157 -63 173 -4 17 -15 47 -25 67 -20 40 -31 45 -156 69 l-62 11 18 37
c20 39 22 95 4 126 -12 21 -18 15 -25 -28 -2 -10 -25 -28 -55 -42 l-53 -24 0
52 c0 62 -23 157 -46 193 -17 25 -48 45 -90 58 -14 4 -34 -2 -60 -20z m296
-293 c-30 -58 2 -92 109 -115 43 -9 83 -22 88 -29 13 -17 63 -161 63 -182 0
-13 -6 -16 -22 -12 -13 3 -78 11 -146 18 -138 13 -162 8 -182 -42 -7 -16 -20
-31 -30 -34 -10 -3 -27 -19 -38 -36 l-18 -30 -19 35 c-18 33 -18 37 -1 112 13
61 40 218 45 265 2 18 42 51 55 46 9 -4 30 0 48 8 48 21 61 19 48 -4z m330
-492 c10 -23 10 -39 2 -67 -8 -26 -8 -51 -1 -81 5 -25 11 -66 13 -92 2 -45 1
-49 -24 -54 -33 -7 -108 9 -127 27 -12 12 -10 18 11 41 14 15 30 46 36 70 13
48 51 168 57 180 9 15 21 6 33 -24z m-35 -304 c73 -2 97 -10 153 -52 46 -35
43 -57 -11 -61 -34 -2 -52 4 -97 33 -38 25 -66 35 -93 35 -47 0 -77 15 -77 39
0 26 10 32 34 19 11 -6 53 -12 91 -13z m532 -137 c27 -26 29 -43 6 -57 -12 -7
-14 -10 -4 -11 11 0 11 -3 1 -15 -7 -9 -29 -15 -51 -15 -35 0 -39 3 -48 33 -8
29 -6 35 22 60 38 33 44 33 74 5z"/>
<path d="M1670 2355 c-8 -9 -8 -15 -2 -15 6 0 16 -17 23 -37 7 -21 21 -54 32
-73 11 -19 34 -62 50 -94 51 -98 41 -47 -11 60 -27 54 -55 116 -61 137 -14 42
-14 42 -31 22z"/>
<path d="M1520 2286 c0 -3 17 -22 39 -43 21 -22 46 -53 55 -71 9 -18 21 -32
26 -32 13 0 13 4 -2 35 -10 22 -9 28 3 35 10 7 6 11 -19 16 -18 4 -38 14 -45
24 -12 17 -57 45 -57 36z"/>
<path d="M1835 2013 c7 -27 20 -109 30 -183 9 -74 20 -144 24 -154 10 -28 91
179 91 234 0 66 -24 105 -80 129 -74 32 -79 30 -65 -26z m110 -81 c6 -40 -14
-113 -33 -120 -6 -2 -13 13 -17 35 -3 21 -10 62 -15 92 -5 29 -7 57 -4 62 12
20 62 -31 69 -69z"/>
<path d="M645 1728 c-33 -19 -35 -29 -29 -148 5 -99 10 -120 30 -153 29 -45
64 -60 115 -52 72 12 72 49 1 110 -29 25 -35 39 -39 80 -4 41 -1 55 17 78 21
26 45 35 52 19 4 -9 137 -91 196 -121 120 -61 -27 53 -173 134 -27 15 -60 36
-74 46 -27 21 -66 24 -96 7z m75 -43 c10 -12 10 -21 1 -41 -6 -14 -11 -45 -11
-69 0 -37 6 -52 36 -85 42 -46 40 -80 -4 -80 -62 1 -89 56 -90 185 -1 59 3 92
11 97 19 12 44 9 57 -7z"/>
<path d="M1878 1639 c-3 -8 -2 -36 2 -62 6 -43 5 -50 -11 -49 -3 1 -3 -12 -1
-29 3 -17 0 -29 -7 -29 -6 0 -11 -4 -11 -10 0 -13 33 -13 46 0 7 7 9 40 7 80
-4 76 -16 123 -25 99z"/>
<path d="M1355 1632 c15 -16 207 -123 212 -118 2 2 -39 29 -91 60 -100 59
-139 78 -121 58z"/>
<path d="M560 1511 c-13 -32 -5 -56 26 -82 16 -13 16 -11 -1 14 -12 19 -16 38
-12 62 7 43 3 44 -13 6z"/>
<path d="M755 1332 c19 -18 328 -193 332 -188 3 3 -20 20 -52 38 -31 18 -64
38 -73 43 -118 71 -229 128 -207 107z"/>
<path d="M1591 1279 c-36 -36 -38 -48 -11 -82 11 -14 20 -30 20 -36 0 -21 47
-35 74 -23 22 10 27 7 49 -21 35 -47 64 -107 72 -152 11 -57 18 -65 26 -26 9
45 -9 103 -55 174 -29 46 -34 62 -26 77 20 38 12 68 -27 95 -50 34 -84 32
-122 -6z m79 11 c0 -5 7 -10 15 -10 21 0 36 -34 33 -77 -3 -36 -5 -38 -40 -41
-31 -2 -40 2 -62 31 -32 42 -32 46 2 79 28 27 52 36 52 18z"/>
<path d="M1827 1244 c-3 -5 -8 -39 -12 -75 -6 -60 -5 -69 14 -88 12 -12 31
-21 42 -21 20 0 20 2 -6 22 -26 20 -27 25 -22 83 5 56 -3 99 -16 79z"/>
<path d="M1566 1102 c-22 -42 -87 -73 -176 -83 l-65 -7 75 1 c53 2 86 8 114
23 45 23 81 65 74 85 -3 9 -11 1 -22 -19z"/>
<path d="M1025 1081 c-58 -26 -83 -91 -52 -136 25 -37 27 -66 5 -95 -25 -34
-20 -65 18 -109 31 -37 89 -55 162 -49 61 5 98 29 127 80 20 37 17 52 -16 99
-10 13 -8 26 10 62 33 69 13 124 -56 153 -46 20 -150 17 -198 -5z m179 -21
c14 -5 34 -23 45 -41 13 -21 21 -26 25 -17 3 7 3 2 0 -12 -4 -14 -13 -33 -21
-42 -22 -25 -22 -92 0 -116 17 -18 17 -23 3 -56 -18 -43 -50 -58 -126 -58 -75
0 -108 15 -125 56 -13 30 -12 37 5 71 20 40 18 77 -5 105 -7 8 -16 26 -19 40
-5 16 -4 20 2 12 6 -9 12 -6 20 13 7 14 27 32 45 40 37 17 115 19 151 5z"/>
<path d="M1074 1040 c-16 -5 -41 -21 -53 -34 l-23 -25 33 -20 c64 -39 226 -20
217 26 -8 43 -108 73 -174 53z m134 -26 c22 -15 23 -17 7 -34 -39 -44 -175
-33 -175 14 0 41 115 55 168 20z"/>
<path d="M1020 796 c0 -8 12 -24 26 -35 55 -43 194 -17 194 35 0 13 -3 13 -22
0 -12 -9 -32 -16 -45 -16 -12 0 -25 -5 -29 -12 -5 -7 -3 -8 6 -3 8 5 11 4 7
-2 -3 -5 -20 -8 -36 -5 -17 2 -28 8 -25 13 3 5 -3 9 -13 9 -10 0 -29 7 -41 16
-19 13 -22 13 -22 0z"/>
<path d="M1689 1017 c-314 -178 -316 -180 -305 -219 4 -17 71 -61 273 -178
349 -202 301 -200 604 -26 123 71 232 135 242 144 22 19 22 55 0 74 -32 28
-173 100 -173 89 0 -6 28 -29 63 -51 101 -64 103 -66 91 -87 -6 -10 -40 -34
-75 -54 -35 -20 -136 -77 -223 -127 -127 -74 -167 -92 -199 -92 -43 0 -103 27
-252 115 -49 29 -133 78 -186 109 -53 30 -107 64 -120 75 -23 18 -23 20 -6 39
10 11 45 34 77 51 32 17 82 47 110 66 29 19 53 35 55 35 2 0 11 -22 20 -49 21
-64 45 -94 95 -120 48 -25 57 -26 40 -6 -7 8 -16 12 -21 9 -5 -3 -9 0 -9 5 0
6 -6 11 -12 11 -15 0 -58 63 -58 85 0 21 17 19 30 -5 6 -11 15 -20 20 -20 21
0 8 26 -35 67 -50 48 -53 53 -26 53 18 0 48 26 40 34 -2 3 -29 -10 -60 -27z"/>
<path d="M2192 978 c3 -7 15 -15 28 -18 21 -5 19 -9 -31 -46 -45 -34 -54 -46
-54 -71 l0 -31 33 29 c41 36 120 77 169 87 l38 8 -34 18 c-22 12 -44 16 -65
12 -21 -4 -39 -1 -51 9 -24 18 -38 19 -33 3z"/>
<path d="M1850 958 c-17 -27 -14 -67 6 -88 22 -23 33 0 27 58 -6 58 -11 63
-33 30z"/>
<path d="M1935 919 c-9 -14 3 -77 17 -85 8 -5 9 2 3 22 -4 16 -7 39 -7 52 2
24 -3 28 -13 11z"/>
<path d="M2183 793 c0 -18 -7 -43 -16 -56 -39 -60 -188 -93 -297 -67 -70 17
-130 69 -130 114 0 23 -3 27 -10 16 -21 -32 17 -87 85 -123 34 -18 57 -22 145
-22 93 0 111 3 155 25 61 32 95 84 78 121 -11 23 -11 23 -10 -8z"/>
</g>
</svg>
